<?xml version="1.0" encoding="utf-8"?>
<!-- Generator: Adobe Illustrator 25.3.1, SVG Export Plug-In . SVG Version: 6.00 Build 0)  -->
<svg version="1.1" id="Layer_1" xmlns="http://www.w3.org/2000/svg" xmlns:xlink="http://www.w3.org/1999/xlink" x="0px" y="0px"
	 viewBox="0 0 427.7 427.7" style="enable-background:new 0 0 427.7 427.7;" xml:space="preserve">
<style type="text/css">
	.st0{fill:#FFFFFF;}
</style>
<path d="M645.3,71.3c-118.1,0-213.8,95.7-213.8,213.8s95.7,213.8,213.8,213.8s213.8-95.7,213.8-213.8S763.4,71.3,645.3,71.3z
	 M738.4,381.6c-2.7,4.7-7.6,7.2-12.6,7.2c-2.5,0-5-0.6-7.4-2c-38.4-22.5-82.8-26.1-113.3-25.1c-33.8,1-58.5,7.7-58.8,7.8
	c-7.8,2.1-15.8-2.5-18-10.2c-2.1-7.8,2.4-15.8,10.2-18c1.1-0.3,27.8-7.5,64.8-8.8c21.8-0.7,42.8,0.8,62.4,4.5
	c24.8,4.7,47.5,13,67.3,24.6C740.1,365.7,742.4,374.6,738.4,381.6z M765.6,325.1c-3.2,5.5-9,8.6-15,8.6c-3,0-6-0.8-8.7-2.4
	c-45.5-26.6-98.1-30.9-134.2-29.8c-40,1.2-69.3,9.1-69.6,9.2c-9.2,2.5-18.7-2.9-21.3-12.1c-2.5-9.2,2.9-18.7,12.1-21.3
	c1.3-0.4,32.9-8.9,76.8-10.4c25.9-0.9,50.7,0.9,74,5.4c29.4,5.6,56.2,15.4,79.7,29.1C767.6,306.3,770.4,316.9,765.6,325.1z
	 M782.3,273.8c-3.6,0-7.3-0.9-10.7-2.9c-108.2-63.2-248.6-25.6-250-25.3c-11.3,3.1-23-3.5-26.1-14.8c-3.1-11.3,3.5-23,14.8-26.1
	c1.6-0.4,40.3-11,94.2-12.7c31.7-1,62.2,1.2,90.7,6.6c36.1,6.8,69,18.9,97.8,35.7c10.1,5.9,13.5,18.9,7.6,29.1
	C796.7,270,789.6,273.8,782.3,273.8z"/>
<g>
	<path d="M-505.5-1.9c-31.4,0-51.9,20.6-51.9,47.7c0,26.5,19.9,47.6,50.7,47.6h0.6c32,0,51.9-21.2,51.9-47.6
		C-454.8,18.7-474.1-1.9-505.5-1.9z"/>
	<path d="M-551.9,131.1h91.7v275.8h-91.7V131.1z"/>
	<path d="M-235.2,124.6c-49.5,0-82.6,46.5-82.6,46.5v-40h-91.7v275.8h91.7v-154c0-8.2,0.6-16.5,3-22.4c6.6-16.5,21.7-33.5,47-33.5
		c33.2,0,46.4,25.3,46.4,62.4v147.5h91.7V248.8C-129.7,164.1-174.9,124.6-235.2,124.6z"/>
</g>
<g>
	<g>
		<g>
			<g>
				<path d="M491.3-383.4c8.9-4.5,15.6-9.4,20.2-14.8c8.2-9.7,12.2-22.5,12.2-38.4c0-15.5-4-28.7-12.1-39.8
					c-13.5-18.1-36.3-27.3-68.5-27.8H315.4v260.7h119.1c13.4,0,25.8-1.1,37.3-3.5c11.5-2.4,21.4-6.7,29.9-13.1
					c7.5-5.5,13.7-12.4,18.7-20.5c7.9-12.2,11.8-26.1,11.8-41.6c0-15-3.4-27.7-10.3-38.2C515-370.8,504.8-378.5,491.3-383.4z
					 M368.1-458.9h57.5c12.6,0,23.1,1.4,31.2,4.1c9.5,3.9,14.2,11.9,14.2,24.1c0,10.9-3.6,18.6-10.7,22.9c-7.2,4.3-16.5,6.5-28,6.5
					h-64.3V-458.9z M459-293.3c-6.4,3.1-15.3,4.6-26.8,4.6h-64.2v-69.5h65.1c11.3,0.1,20.2,1.6,26.5,4.4c11.2,5.1,16.8,14.4,16.8,28
					C476.4-309.8,470.6-299,459-293.3z"/>
				<rect x="588.7" y="-492" width="113.3" height="32.5"/>
				<path d="M741.3-364c-2.4-15.1-7.5-28.4-15.6-39.9c-8.8-13-20.1-22.5-33.7-28.5c-13.6-6-28.9-9.1-46-9c-28.6,0-51.9,9-69.9,26.7
					c-17.9,17.8-26.9,43.5-26.9,76.9c0,35.6,9.9,61.4,29.9,77.2c19.9,15.8,42.8,23.7,68.8,23.7c31.5,0,56-9.4,73.5-28.1
					c11.2-11.8,17.5-23.4,18.9-34.9h-52.2c-3,5.6-6.5,10.1-10.5,13.3c-7.3,5.9-16.7,8.8-28.3,8.8c-11,0-20.4-2.4-28.2-7.3
					c-12.9-7.8-19.6-21.3-20.5-40.7H743C743.2-342.3,742.7-355.1,741.3-364z M601.9-359c1.9-12.5,6.4-22.5,13.6-29.8
					c7.2-7.3,17.4-11,30.5-11c12.1,0,22.1,3.4,30.3,10.4c8.1,7,12.7,17.1,13.6,30.5H601.9z"/>
			</g>
		</g>
	</g>
	<g>
	</g>
	<g>
	</g>
	<g>
	</g>
	<g>
	</g>
	<g>
	</g>
	<g>
	</g>
	<g>
	</g>
	<g>
	</g>
	<g>
	</g>
	<g>
	</g>
	<g>
	</g>
	<g>
	</g>
	<g>
	</g>
	<g>
	</g>
	<g>
	</g>
</g>
<g>
	<path class="st0" d="M213.9,104.2c-60.7,0-109.6,48.9-109.6,109.6s48.9,109.6,109.6,109.6s109.6-48.9,109.6-109.6
		S274.6,104.2,213.9,104.2z M213.9,285.1c-39.2,0-71.3-32-71.3-71.3s32-71.3,71.3-71.3s71.3,32,71.3,71.3S253.1,285.1,213.9,285.1
		L213.9,285.1z M353.5,99.7c0,14.2-11.4,25.6-25.6,25.6c-14.2,0-25.6-11.4-25.6-25.6s11.4-25.6,25.6-25.6S353.5,85.6,353.5,99.7z
		 M426.1,125.7c-1.6-34.3-9.4-64.6-34.5-89.6c-25-25-55.3-32.8-89.6-34.5c-35.3-2-141.1-2-176.4,0C91.5,3.2,61.1,11,36,36
		S3.2,91.3,1.5,125.6c-2,35.3-2,141.1,0,176.4c1.6,34.3,9.4,64.6,34.5,89.6s55.3,32.8,89.6,34.5c35.3,2,141.1,2,176.4,0
		c34.3-1.6,64.6-9.4,89.6-34.5c25-25,32.8-55.3,34.5-89.6C428.2,266.7,428.2,161,426.1,125.7L426.1,125.7z M380.5,339.9
		c-7.4,18.7-21.8,33.1-40.6,40.6c-28.1,11.2-94.9,8.6-126,8.6s-98,2.5-126-8.6c-18.7-7.4-33.1-21.8-40.6-40.6
		c-11.2-28.1-8.6-94.9-8.6-126s-2.5-98,8.6-126C54.6,69.1,69,54.7,87.8,47.2c28.1-11.2,94.9-8.6,126-8.6s98-2.5,126,8.6
		c18.7,7.4,33.1,21.8,40.6,40.6c11.2,28.1,8.6,94.9,8.6,126S391.7,311.8,380.5,339.9z"/>
</g>
</svg>
