<?xml version="1.0" encoding="utf-8"?>
<!-- Generator: Adobe Illustrator 25.3.1, SVG Export Plug-In . SVG Version: 6.00 Build 0)  -->
<svg version="1.1" id="Layer_1" xmlns="http://www.w3.org/2000/svg" xmlns:xlink="http://www.w3.org/1999/xlink" x="0px" y="0px"
	 viewBox="0 0 427.7 427.7" style="enable-background:new 0 0 427.7 427.7;" xml:space="preserve">
<style type="text/css">
	.st0{fill:#FFFFFF;}
</style>
<path d="M212.8-453.3C94.7-453.3-1.1-357.6-1.1-239.5S94.7-25.7,212.8-25.7s213.8-95.7,213.8-213.8S330.9-453.3,212.8-453.3z
	 M305.8-143c-2.7,4.7-7.6,7.2-12.6,7.2c-2.5,0-5-0.6-7.4-2c-38.4-22.5-82.8-26.1-113.3-25.1c-33.8,1-58.5,7.7-58.8,7.8
	c-7.8,2.1-15.8-2.5-18-10.2c-2.1-7.8,2.4-15.8,10.2-18c1.1-0.3,27.8-7.5,64.8-8.8c21.8-0.7,42.8,0.8,62.4,4.5
	c24.8,4.7,47.5,13,67.3,24.6C307.6-158.9,309.9-150,305.8-143z M333-199.4c-3.2,5.5-9,8.6-15,8.6c-3,0-6-0.8-8.7-2.4
	c-45.5-26.6-98.1-30.9-134.2-29.8c-40,1.2-69.3,9.1-69.6,9.2c-9.2,2.5-18.7-2.9-21.3-12.1c-2.5-9.2,2.9-18.7,12.1-21.3
	c1.3-0.4,32.9-8.9,76.8-10.4c25.9-0.9,50.7,0.9,74,5.4c29.4,5.6,56.2,15.4,79.7,29.1C335.1-218.3,337.8-207.7,333-199.4z
	 M349.7-250.8c-3.6,0-7.3-0.9-10.7-2.9c-108.2-63.2-248.6-25.6-250-25.3c-11.3,3.1-23-3.5-26.1-14.8c-3.1-11.3,3.5-23,14.8-26.1
	c1.6-0.4,40.3-11,94.2-12.7c31.7-1,62.2,1.2,90.7,6.6c36.1,6.8,69,18.9,97.8,35.7c10.1,5.9,13.5,18.9,7.6,29.1
	C364.1-254.5,357-250.8,349.7-250.8z"/>
<g>
	<g>
		<g>
			<g>
				<path class="st0" d="M646.3-294.5c8.9-4.5,15.6-9.4,20.2-14.8c8.2-9.7,12.2-22.5,12.2-38.4c0-15.5-4-28.7-12.1-39.8
					c-13.5-18.1-36.3-27.3-68.5-27.8H470.4v260.7h119.1c13.4,0,25.8-1.1,37.3-3.5c11.5-2.4,21.4-6.7,29.9-13.1
					c7.5-5.5,13.7-12.4,18.7-20.5c7.9-12.2,11.8-26.1,11.8-41.6c0-15-3.4-27.7-10.3-38.2C669.9-281.9,659.8-289.6,646.3-294.5z
					 M523-370h57.5c12.6,0,23.1,1.4,31.2,4.1c9.5,3.9,14.2,11.9,14.2,24.1c0,10.9-3.6,18.6-10.7,22.9c-7.2,4.3-16.5,6.5-28,6.5H523
					V-370z M614-204.4c-6.4,3.1-15.3,4.6-26.8,4.6H523v-69.5h65.1c11.3,0.1,20.2,1.6,26.5,4.4c11.2,5.1,16.8,14.4,16.8,28
					C631.4-220.9,625.6-210.1,614-204.4z"/>
				<rect x="743.6" y="-403.1" class="st0" width="113.3" height="32.5"/>
				<path class="st0" d="M896.3-275.1c-2.4-15.1-7.5-28.4-15.6-39.9c-8.8-13-20.1-22.5-33.7-28.5c-13.6-6-28.9-9.1-46-9
					c-28.6,0-51.9,9-69.9,26.7c-17.9,17.8-26.9,43.5-26.9,76.9c0,35.6,9.9,61.4,29.9,77.2c19.9,15.8,42.8,23.7,68.8,23.7
					c31.5,0,56-9.4,73.5-28.1c11.2-11.8,17.5-23.4,18.9-34.9h-52.2c-3,5.6-6.5,10.1-10.5,13.3c-7.3,5.9-16.7,8.8-28.3,8.8
					c-11,0-20.4-2.4-28.2-7.3c-12.9-7.8-19.6-21.3-20.5-40.7H898C898.2-253.4,897.6-266.2,896.3-275.1z M756.9-270.1
					c1.9-12.5,6.4-22.5,13.6-29.8c7.2-7.3,17.4-11,30.5-11c12.1,0,22.1,3.4,30.3,10.4c8.1,7,12.7,17.1,13.6,30.5H756.9z"/>
			</g>
		</g>
	</g>
	<g>
	</g>
	<g>
	</g>
	<g>
	</g>
	<g>
	</g>
	<g>
	</g>
	<g>
	</g>
	<g>
	</g>
	<g>
	</g>
	<g>
	</g>
	<g>
	</g>
	<g>
	</g>
	<g>
	</g>
	<g>
	</g>
	<g>
	</g>
	<g>
	</g>
</g>
<g>
	<path class="st0" d="M150.3,74.7c-23.1,0-38.3,15-38.3,34.7c0,19.3,14.7,34.7,37.4,34.7h0.4c23.6,0,38.3-15.4,38.3-34.7
		C187.7,89.7,173.4,74.7,150.3,74.7z"/>
	<path class="st0" d="M116,171.6h67.7v201H116V171.6z"/>
	<path class="st0" d="M349.8,166.8c-36.5,0-61,33.9-61,33.9v-29.1h-67.7v201h67.7V260.3c0-6,0.4-12,2.2-16.3
		c4.9-12,16-24.4,34.7-24.4c24.5,0,34.3,18.4,34.3,45.5v107.5h67.7V257.3C427.7,195.6,394.3,166.8,349.8,166.8z"/>
</g>
</svg>
