<?xml version="1.0" encoding="utf-8"?>
<!-- Generator: Adobe Illustrator 22.0.1, SVG Export Plug-In . SVG Version: 6.00 Build 0)  -->
<svg version="1.1" id="Capa_1" xmlns="http://www.w3.org/2000/svg" xmlns:xlink="http://www.w3.org/1999/xlink" x="0px" y="0px"
	 viewBox="0 0 2261.4 382.8" style="enable-background:new 0 0 2261.4 382.8;" xml:space="preserve">
<style type="text/css">
	.st0{fill:#FFFFFF;}
</style>
<path class="st0" d="M1711.5,98.6h31.5c27.6,0,35.5,7.9,35.5,47.3V276c0,27.6,12.1,46.8,43.4,51.2c27.6,3.9,59.1,0,59.1-31.5
	c0-55.2,1.4-114.3,1.4-149.8c0-39.4,6.5-47.3,30.2-47.3h31.5c0,0-3.9,7.9-3.9,47.3v145.9c0,86.7-65.1,86.7-86.7,86.7
	c-26.3,0-62.6-3.9-78.9-23.6c0.4,15.8,0,23.6,0,23.6h-59.1V145.9C1715.4,106.5,1711.5,98.6,1711.5,98.6z"/>
<path class="st0" d="M580.1,98.6c0,0,28.7-0.3,48.7-0.3c18.1,0,30.4,6.6,36.2,18.1c18.1,36.2,51.7,97.2,53.5,100.5
	c1.9-3.2,39.6-64.1,57.8-100.5c9-18.1,18.1-18.1,36.2-18.1c18.8,0,43.7,0.3,43.7,0.3s-3.9,7.9-3.9,47.3v141.9
	c0,55.2-11.8,86.7-59.1,86.7h-86.8l23.6-47.3h39.4c19.7,0,23.6-15.8,23.6-39.4c0-3.2,0.3-30.8,0.3-35.5c0-51.2,7.9-86.7,7.9-86.7
	s-53.2,92.1-59.1,102.5c-4.4,7.6-7.9,15.8-23.6,15.8c-15.8,0-19.4-4.2-23.6-11.8c-8.6-15.4-55.2-106.4-55.2-106.4
	c2.8,28.8,4.1,57.8,3.9,86.7c0,11.8-0.3,122.2-0.3,122.2v-0.2h-59.1c-0.1-75.5,0-153,0-228.5C584,106.5,580.1,98.6,580.1,98.6
	L580.1,98.6z"/>
<path class="st0" d="M1984.5,98.6c0,0,28.8-0.3,48.8-0.3c18.2,0,30.5,6.6,36.3,18.1c18.2,36.2,51.4,101.2,53.4,104.4
	c1.9-3.2,40-68,58.3-104.4c9-18.1,18.2-18.1,36.3-18.1c18.9,0,43.8,0.3,43.8,0.3s-3.9,7.9-3.9,47.3v145.9
	c0,55.2-11.8,82.8-59.3,82.8h-87l23.7-47.3h39.5c19.8,0,23.7-11.8,23.7-35.5V185.5c0,0-39.5,74.7-55.4,102.3
	c-4.4,7.7-3.9,7.9-19.8,7.9c-15.8,0-15.4-0.2-19.8-7.9c-19.8-35.5-55.4-102.5-55.4-102.5v189.2c0-0.1,0-0.1,0-0.2h-59.4
	c-0.1-75.5,0-153,0-228.5C1988.4,106.5,1984.5,98.6,1984.5,98.6L1984.5,98.6z"/>
<path class="st0" d="M146.1,94.7c-35.6,0-55.3,19.7-59.2,31.5c0-27.6-63.3-27.6-63.3-27.6s3.9,11.8,3.9,51.2v145.9h63.3V173.5
	c0-27.6,35.6-31.5,47.4-31.5c31.9,0,39.5,3.9,39.5,31.5v98.6c0,55.2-19.7,55.2-51.3,55.2H23.7L0,374.6h126.5
	c83,0,114.6-11.8,114.6-102.5v-90.6C241,114.4,205.5,94.7,146.1,94.7L146.1,94.7z"/>
<path class="st0" d="M412.6,94.7c-99.8,0-124.2,43.4-124.2,141.9c0,102.6,24.5,141.9,124.2,142c99.5,0.2,124.1-39.4,124.1-141.9
	C536.7,138,512.1,94.7,412.6,94.7L412.6,94.7z M410.6,327.3c-63.1,0-60.4-31.5-60.4-90.7s-1.3-90.7,61.8-90.7s60.4,31.5,60.4,90.7
	S473.6,327.3,410.6,327.3z"/>
<path class="st0" d="M1455.1,268.1l59.2,15.8v15.9c0,27.6,18.4,27.5,39.4,27.5c39.4,0,51.2,0,51.2-27.6c0-12.1-3.1-21.2-16.5-26.8
	c-16.3-6.9-30.8-12.6-62.3-24.4c-36.4-13.6-70.9-27.6-70.9-47.3V146c0-47.3,43.4-51.2,102.5-51.2c70.9,0,110.4,3.9,110.4,51.2v55.2
	l-59.5-13.2c0,0,0.4-10.4,0.4-22.3c0-19.7-19.7-19.7-43.4-19.7s-39.4,0-39.4,19.7c0,11.8,0,23.6,11.8,27.6
	c21.8,7.3,70.9,27.6,102.5,43.4c28.4,14.2,27.5,34.9,27.6,39.4c0.2,8.2,0,39.4,0,51.2c0,47.3-43.4,51.3-98.5,51.3
	c-43.4,0-91.1-1.9-108.1-27.8c-4-6.1-6.3-13.7-6.3-23.3L1455.1,268.1z"/>
<path class="st0" d="M1281.8,98.6h-51.2c0,0,19.7,39.4,19.7,118.2s-35.5,106.4-94.6,106.4s-94.6-27.6-94.6-106.4
	s19.7-118.2,19.7-118.2h-51.5c-15.2,0-31.3,7.9-35.3,118.2c0,118.2,54,165.4,161.6,165.6c107.4,0.2,161.9-47.4,157.7-165.6
	C1309.4,106.5,1297.5,98.6,1281.8,98.6z"/>
<path class="st0" d="M1118,0.3c2.2,0,35.7,0.2,50.9-0.1c3.5-0.1,6.8,1.6,8.6,4.6c9.3,12.8,12.9,27.8,13.5,44
	c0.8,21.7-5,41.8-11.4,61.9c-3.7,11.4-7.7,22.8-9.8,34.7c-4.5,24.6,0.7,46.9,15.2,66.2c1.1,1.4,2.2,2.9,3.3,4.3v0.9
	c-1.2,0.1-2.5,0.3-3.8,0.3c-15.4,0-30.9-0.1-46.3,0.1c-2.7,0.2-5.2-1.2-6.6-3.6c-9-13.2-13.3-28.4-14.8-44.8
	c-1.7-19.1,3.2-36.8,8.9-54.4c4.6-14.4,9.9-28.7,12.4-43.5c3.8-22.3,1.6-43.8-12.3-61.9C1123.6,5.9,1121,3.5,1118,0.3L1118,0.3z"/>
</svg>
