<?xml version="1.0" encoding="utf-8"?>
<!-- Generator: Adobe Illustrator 22.0.1, SVG Export Plug-In . SVG Version: 6.00 Build 0)  -->
<svg version="1.1" id="Capa_1" xmlns="http://www.w3.org/2000/svg" xmlns:xlink="http://www.w3.org/1999/xlink" x="0px" y="0px"
	 viewBox="0 0 320.5 382.8" style="enable-background:new 0 0 320.5 382.8;" xml:space="preserve">
<style type="text/css">
	.st0{fill:#FFFFFF;}
</style>
<path class="st0" d="M288.4,98.6h-51.2c0,0,19.7,39.4,19.7,118.2s-35.5,106.4-94.6,106.4s-94.6-27.6-94.6-106.4S87.4,98.6,87.4,98.6
	H35.9c-15.2,0-31.3,7.9-35.3,118.2c0,118.2,54,165.4,161.6,165.6c107.4,0.2,161.9-47.4,157.7-165.6C316,106.5,304.1,98.6,288.4,98.6
	z"/>
<path class="st0" d="M124.6,0.3c2.2,0,35.7,0.2,50.9-0.1c3.5-0.1,6.8,1.6,8.6,4.6c9.3,12.8,12.9,27.8,13.5,44
	c0.8,21.7-5,41.8-11.4,61.9c-3.7,11.4-7.7,22.8-9.8,34.7c-4.5,24.6,0.7,46.9,15.2,66.2c1.1,1.4,2.2,2.9,3.3,4.3v0.9
	c-1.2,0.1-2.5,0.3-3.8,0.3c-15.4,0-30.9-0.1-46.3,0.1c-2.7,0.2-5.2-1.2-6.6-3.6c-9-13.2-13.3-28.4-14.8-44.8
	c-1.7-19.1,3.2-36.8,8.9-54.4c4.6-14.4,9.9-28.7,12.4-43.5c3.8-22.3,1.6-43.8-12.3-61.9C130.2,5.9,127.6,3.5,124.6,0.3L124.6,0.3z"
	/>
</svg>
