<?xml version="1.0" encoding="utf-8"?>
<!-- Generator: Adobe Illustrator 22.0.1, SVG Export Plug-In . SVG Version: 6.00 Build 0)  -->
<svg version="1.1" id="Capa_1" xmlns="http://www.w3.org/2000/svg" xmlns:xlink="http://www.w3.org/1999/xlink" x="0px" y="0px"
	 viewBox="0 0 511 511" style="enable-background:new 0 0 511 511;" xml:space="preserve">
<style type="text/css">
	.st0{fill:#FFFFFF;}
</style>
<path class="st0" d="M488.9,125.1c-10.7-10.7-29.3-23.3-57.5-23.3c-0.1,0-0.2,0-0.3,0c-3.5,0-7,0.3-10.7,0.8
	c2.4-21.3,9.3-50.8,28.8-67.4c8.4-7.2,9.4-19.8,2.2-28.1c-7.2-8.4-19.8-9.4-28.1-2.2c-30.8,26.3-40.2,69.1-43,97.2
	c-9.3-2.1-18.1-3.2-26.4-3.2c-0.2,0-0.4,0-0.6,0c-33.3,0.2-54.1,15.2-65.6,27.8c-13.2,14.4-21.1,33.2-21.1,50.1c0,6.3,3,12.2,8,16
	c3.2,2.4,7.1,3.7,11,3.9c-2.9,32.8-12.7,76.9-33.6,115.9c-27.7,51.6-65.4,77.8-112.2,77.8c-30.5,0-56.3-12.6-76.7-37.5
	c-16.1-19.7-22.9-40-23-40.4c0-0.1-0.1-0.3-0.2-0.4c-0.1-0.4-0.3-0.8-0.4-1.2c-0.1-0.2-0.2-0.5-0.3-0.7c-0.2-0.3-0.3-0.7-0.5-1
	c-0.1-0.3-0.3-0.5-0.4-0.8c-0.2-0.3-0.3-0.6-0.5-0.8c-0.2-0.3-0.4-0.6-0.6-0.8c-0.2-0.2-0.4-0.5-0.5-0.7c-0.2-0.3-0.5-0.6-0.7-0.8
	c-0.2-0.2-0.4-0.4-0.6-0.6c-0.3-0.3-0.5-0.5-0.8-0.7c-0.2-0.2-0.4-0.4-0.7-0.6c-0.3-0.2-0.5-0.4-0.8-0.6c-0.3-0.2-0.5-0.4-0.8-0.6
	c-0.2-0.2-0.5-0.3-0.8-0.5c-0.3-0.2-0.6-0.4-0.9-0.5c-0.2-0.1-0.5-0.3-0.7-0.4c-0.3-0.2-0.7-0.3-1-0.5c-0.2-0.1-0.5-0.2-0.7-0.3
	c-0.4-0.1-0.7-0.3-1.1-0.4c-0.3-0.1-0.5-0.2-0.8-0.2c-0.4-0.1-0.7-0.2-1.1-0.3c-0.3-0.1-0.6-0.1-0.9-0.2c-0.3-0.1-0.6-0.1-1-0.1
	c-0.4,0-0.7-0.1-1.1-0.1c-0.3,0-0.6,0-0.9,0c-0.4,0-0.8,0-1.2,0c-0.2,0-0.3,0-0.5,0c-0.1,0-0.2,0-0.3,0c-0.4,0-0.7,0.1-1.1,0.1
	c-0.3,0-0.6,0.1-1,0.2c-0.3,0.1-0.6,0.1-0.9,0.2c-0.4,0.1-0.8,0.2-1.1,0.3c-0.1,0-0.2,0-0.3,0.1c-0.2,0-0.3,0.1-0.4,0.2
	c-0.4,0.1-0.8,0.3-1.2,0.4c-0.3,0.1-0.5,0.2-0.7,0.3c-0.3,0.2-0.7,0.3-1,0.5c-0.3,0.1-0.5,0.3-0.8,0.5c-0.3,0.2-0.6,0.3-0.8,0.5
	c-0.3,0.2-0.6,0.4-0.9,0.6c-0.2,0.2-0.5,0.3-0.7,0.5c-0.3,0.2-0.6,0.5-0.8,0.7c-0.2,0.2-0.4,0.4-0.6,0.6c-0.3,0.3-0.5,0.5-0.8,0.8
	c-0.2,0.2-0.4,0.4-0.6,0.6c-0.2,0.3-0.4,0.5-0.7,0.8c-0.2,0.2-0.4,0.5-0.5,0.8c-0.2,0.3-0.4,0.5-0.5,0.8c-0.2,0.3-0.4,0.6-0.5,0.9
	c-0.1,0.3-0.3,0.5-0.4,0.8c-0.2,0.3-0.3,0.7-0.5,1c-0.1,0.2-0.2,0.5-0.3,0.8c-0.1,0.3-0.2,0.7-0.4,1c-0.1,0.3-0.2,0.5-0.2,0.8
	c-0.1,0.3-0.2,0.7-0.2,1c-0.1,0.3-0.1,0.6-0.2,1c-0.1,0.3-0.1,0.6-0.1,0.9c0,0.4-0.1,0.7-0.1,1.1c0,0.3,0,0.5,0,0.8
	c0,0.4,0,0.8,0,1.2c0,0.2,0,0.3,0,0.5c0.1,1.9,3.3,48.1,28.7,94.6c24.1,44.1,73,96.7,168.8,96.7c64.2,0,124.2-17.1,173.6-49.5
	c9.2-6,11.8-18.4,5.8-27.6s-18.4-11.8-27.6-5.8c-42.9,28.1-95.4,42.9-151.8,42.9c-52.3,0-92.7-18.6-120.6-55.4
	c18.8,9.6,39.5,14.5,61.7,14.5c61.7,0,112.7-34.2,147.3-98.9c24.6-45.9,35.7-98.2,38.6-136c3.3,1,6.6,2.3,9.7,4.1
	c10.6,6.3,17.8,17.8,21.5,34.4c1.9,8.7,9.4,15.2,18.4,15.7c0.4,0,0.8,0,1.2,0c8.5,0,16.1-5.4,18.9-13.5c0.1-0.2,8.6-22.8,26-24.5
	c11-1.1,19-10.8,17.9-21.8c-1.1-11-10.8-19-21.8-17.9c-15.1,1.5-27.3,8.1-36.8,16.6c-6.6-9.7-15-17.5-25-23.4
	c-12.2-7.2-25.6-10.5-38.4-11.4c7.4-8,19-14.8,36.3-14.9c10.6-0.1,23.5,2.8,38.3,8.5c0,0,0,0,0.1,0c0.1,0,0.2,0.1,0.2,0.1
	c0.1,0.1,0.3,0.1,0.4,0.1c0.4,0.2,0.8,0.3,1.3,0.4c0.2,0,0.3,0.1,0.5,0.1c0.4,0.1,0.9,0.2,1.3,0.3c0.2,0,0.4,0.1,0.6,0.1
	c0.4,0.1,0.8,0.1,1.2,0.2c0.6,0.1,1.2,0.1,1.8,0.1c0,0,0,0,0,0c0.4,0,0.7,0,1.1,0c0.1,0,0.2,0,0.3,0c0.4,0,0.8-0.1,1.2-0.1
	c0.3,0,0.5-0.1,0.8-0.1c0.3-0.1,0.7-0.1,1-0.2c0.3-0.1,0.6-0.1,0.9-0.2c0.2-0.1,0.5-0.2,0.7-0.2c0.4-0.1,0.7-0.2,1.1-0.4
	c10-3.8,18.4-5.7,25-5.7h0.2c11.7,0,21.5,3.9,29.3,11.7c7.8,7.8,11.3,17.5,11.3,23.2c0,75.2-20.6,142.2-59.7,193.5
	c-6.7,8.8-5,21.3,3.8,28c3.6,2.7,7.9,4.1,12.1,4.1c6,0,12-2.7,15.9-7.9C488.5,336,512,260.7,512,176.7
	C512,159.1,503.1,139.3,488.9,125.1z"/>
</svg>
